<?xml version="1.0" standalone="no"?>
<!DOCTYPE svg PUBLIC "-//W3C//DTD SVG 20010904//EN"
 "http://www.w3.org/TR/2001/REC-SVG-20010904/DTD/svg10.dtd">
<svg version="1.0" xmlns="http://www.w3.org/2000/svg"
 width="571.000000pt" height="571.000000pt" viewBox="0 0 571.000000 571.000000"
 preserveAspectRatio="xMidYMid meet">
<metadata>
Created by potrace 1.14, written by Peter Selinger 2001-2017
</metadata>
<g transform="translate(0.000000,571.000000) scale(0.100000,-0.100000)"
fill="#000000" stroke="none">
<path d="M1987 5472 c-39 -27 -68 -59 -72 -84 -3 -12 -8 -24 -12 -27 -5 -3 -9
-15 -11 -26 -1 -11 -5 -31 -7 -45 -30 -151 -29 -364 2 -520 3 -14 6 -35 7 -47
2 -13 6 -26 9 -30 4 -3 7 -18 7 -33 0 -14 4 -30 9 -35 16 -18 43 -114 35 -127
-4 -7 -3 -10 1 -5 8 7 51 -84 60 -126 2 -9 7 -22 10 -27 3 -5 8 -18 10 -27 2
-10 7 -28 11 -40 3 -13 2 -23 -3 -23 -4 0 -17 -17 -28 -37 -11 -21 -22 -40
-26 -43 -3 -3 -16 -25 -30 -50 -39 -73 -66 -110 -74 -102 -5 4 -5 2 -1 -5 4
-7 -2 -34 -13 -60 -40 -95 -58 -204 -38 -225 6 -7 19 -22 27 -32 14 -18 13
-18 -10 -11 -14 4 -33 14 -42 23 -10 8 -18 12 -18 7 0 -4 -6 -3 -13 3 -7 6
-25 13 -40 16 -15 2 -31 7 -36 10 -5 3 -26 8 -47 11 -22 4 -48 9 -59 12 -30
10 -145 10 -151 1 -3 -4 -19 -8 -36 -8 -51 0 -200 -56 -266 -99 -33 -23 -66
-41 -72 -41 -14 0 -170 -156 -170 -170 0 -5 -14 -29 -31 -53 -17 -25 -34 -60
-38 -78 -4 -19 -13 -33 -19 -32 -6 2 -9 -3 -6 -11 3 -7 -2 -55 -11 -106 -9
-51 -14 -95 -11 -97 3 -3 1 -13 -4 -23 -5 -10 -6 -20 -3 -24 6 -6 9 -23 16
-91 2 -16 11 -47 20 -69 9 -21 17 -43 17 -48 0 -6 11 -32 24 -58 13 -27 21
-52 18 -56 -4 -4 -2 -4 4 -1 7 4 17 -6 24 -23 7 -17 16 -30 21 -30 5 0 9 -7 9
-15 0 -8 5 -15 10 -15 6 0 16 -11 22 -25 6 -13 19 -27 28 -30 20 -6 38 -42 34
-70 -1 -11 -5 -45 -9 -76 -4 -33 -2 -79 4 -110 12 -55 50 -139 63 -139 5 0 8
-6 8 -14 0 -18 87 -95 127 -112 30 -13 62 -21 88 -23 6 -1 22 -11 36 -24 15
-12 41 -33 59 -47 18 -14 38 -29 44 -35 23 -21 85 -65 92 -65 6 0 91 -49 154
-88 14 -9 31 -17 38 -18 8 -2 21 -5 30 -9 46 -18 124 -14 188 10 37 14 85 25
107 25 46 0 121 42 157 90 12 16 27 27 33 23 5 -3 8 -2 4 3 -3 5 1 20 9 34 7
14 13 21 14 16 0 -5 7 -3 15 4 12 10 15 10 16 -1 0 -8 2 -22 5 -31 2 -10 5
-24 7 -30 1 -7 5 -17 8 -23 4 -5 10 -27 13 -49 4 -21 12 -50 17 -65 6 -14 10
-26 9 -26 -1 0 6 -17 15 -37 10 -24 11 -38 4 -38 -6 0 -3 -7 5 -16 22 -21 21
-26 -20 -102 -43 -80 -42 -80 -74 -85 -49 -9 -110 -30 -110 -39 0 -4 -6 -8
-12 -8 -7 -1 -22 -8 -34 -18 -23 -19 -94 -119 -94 -132 0 -5 -5 -21 -11 -37
-7 -15 -13 -35 -14 -43 -11 -71 -17 -117 -16 -127 1 -13 1 -30 1 -55 0 -7 1
-24 3 -38 2 -14 -2 -31 -7 -39 -8 -11 -8 -13 2 -7 8 5 5 -8 -8 -33 -12 -25
-32 -46 -48 -53 -56 -22 -78 -33 -96 -50 -10 -10 -24 -14 -30 -11 -6 3 -8 3
-4 -1 4 -5 -4 -19 -18 -33 -72 -72 -120 -202 -129 -348 -1 -22 2 -47 6 -56 11
-22 58 -38 105 -35 22 2 46 -2 54 -9 40 -30 73 -34 237 -25 40 2 58 -2 78 -18
28 -22 70 -23 132 -4 17 6 34 8 37 5 2 -3 11 -1 18 3 7 5 15 9 18 9 43 5 163
63 245 118 47 32 71 41 110 43 28 1 52 3 55 5 3 1 10 3 15 4 23 5 51 19 58 32
4 7 15 13 22 13 8 0 15 4 15 10 0 14 40 49 76 66 17 8 37 26 45 40 14 27 20
182 7 190 -5 3 -8 18 -8 34 0 20 -12 40 -40 68 -44 43 -47 60 -24 128 9 25 17
55 19 67 3 11 7 22 10 25 3 4 63 7 133 8 70 0 136 4 147 7 30 8 55 -16 62 -59
3 -22 9 -43 13 -49 4 -5 6 -18 5 -27 -2 -10 1 -18 6 -18 19 0 8 -58 -16 -84
-14 -15 -25 -31 -25 -37 0 -5 -4 -9 -9 -9 -5 0 -7 -9 -4 -20 3 -11 2 -28 -2
-37 -12 -26 -14 -144 -4 -172 5 -12 41 -54 80 -91 70 -67 115 -90 173 -90 14
0 26 -5 26 -11 0 -5 4 -8 9 -5 12 8 52 -29 43 -39 -4 -5 -2 -5 4 -2 6 4 23 -3
36 -16 14 -12 31 -23 38 -25 8 -2 25 -11 39 -21 14 -9 60 -28 101 -42 41 -13
77 -26 80 -29 13 -13 117 -4 140 12 25 16 50 17 135 3 89 -15 146 -7 188 27
26 20 42 24 87 23 49 -1 56 1 69 24 15 27 20 142 9 196 -7 36 -30 98 -54 145
-25 51 -120 140 -149 140 -8 0 -15 4 -15 10 0 5 -3 9 -7 9 -25 -4 -41 5 -61
36 -21 29 -23 40 -15 77 8 38 8 144 1 251 -3 36 -1 39 34 51 21 8 39 11 42 9
10 -10 127 61 150 91 33 44 54 121 49 181 -2 28 -5 56 -5 63 -1 6 -4 12 -8 12
-4 0 -12 11 -18 25 -10 21 -8 28 10 45 12 11 26 20 30 20 13 0 140 80 169 107
14 12 28 23 32 23 7 0 25 16 80 68 25 23 79 97 82 112 1 3 11 25 22 50 11 25
23 61 27 80 3 19 9 46 13 60 9 35 4 185 -7 185 -1 0 -3 9 -5 19 -10 51 -18 72
-49 120 -39 60 -116 141 -169 176 -20 14 -37 28 -37 33 0 4 -4 7 -9 7 -5 0
-38 19 -73 43 -35 23 -82 50 -105 60 -46 21 -66 51 -67 101 -1 19 -5 34 -10
33 -5 -1 -12 11 -17 27 -4 15 -16 37 -25 47 -9 10 -14 19 -10 19 10 0 -43 44
-70 58 -11 6 -45 12 -75 14 -30 1 -56 6 -59 9 -3 4 -27 10 -54 13 -47 7 -86
21 -86 32 0 12 69 72 76 66 4 -4 4 -2 1 4 -3 6 19 36 48 68 30 32 55 64 55 72
0 8 5 14 10 14 6 0 10 7 10 15 0 8 4 15 9 15 7 0 16 25 27 80 2 8 6 40 9 70 4
41 11 60 29 75 13 11 26 29 30 40 8 27 -12 144 -36 214 -7 20 -12 38 -13 41 0
10 -90 185 -97 190 -4 3 -11 17 -17 32 -12 31 -4 63 33 131 14 26 26 49 26 52
0 3 0 6 1 8 0 1 2 10 4 21 4 23 47 129 54 136 3 3 8 21 9 40 2 19 8 37 13 38
5 2 7 7 5 11 -3 4 1 32 9 62 27 105 41 222 40 328 -1 33 3 61 8 61 5 0 5 6 -1
13 -6 7 -13 33 -16 58 -5 51 -7 63 -35 155 -11 39 -30 80 -41 91 -11 12 -20
26 -20 31 0 26 -89 46 -128 29 -54 -23 -229 -146 -296 -208 -87 -81 -176 -169
-176 -174 0 -2 -24 -28 -53 -58 l-52 -54 -60 10 c-33 6 -63 16 -67 21 -5 8 -8
7 -8 0 0 -8 -11 -9 -37 -4 -106 23 -134 27 -139 19 -3 -5 -10 -7 -15 -3 -25
15 -296 3 -439 -20 -114 -19 -100 -23 -155 49 -27 36 -53 65 -58 65 -4 0 -10
7 -14 16 -13 33 -167 194 -265 276 -36 31 -63 60 -60 64 4 4 2 4 -4 1 -6 -3
-37 10 -70 30 -72 43 -109 50 -147 25z m287 -3487 c-4 -8 -8 -15 -10 -15 -2 0
-4 7 -4 15 0 8 4 15 10 15 5 0 7 -7 4 -15z"/>
</g>
</svg>
